<?xml version="1.0" standalone="no"?>
<!DOCTYPE svg PUBLIC "-//W3C//DTD SVG 20010904//EN"
 "http://www.w3.org/TR/2001/REC-SVG-20010904/DTD/svg10.dtd">
<svg version="1.0" xmlns="http://www.w3.org/2000/svg"
 width="127.000000pt" height="26.000000pt" viewBox="0 0 127.000000 26.000000"
 preserveAspectRatio="xMidYMid meet">

<g transform="translate(0.000000,26.000000) scale(0.100000,-0.100000)"
fill="#ffffff" stroke="none">
<path d="M653 183 c-10 -16 -22 -31 -28 -35 -5 -4 -6 -8 -1 -8 5 0 2 -8 -5
-17 -12 -14 -12 -16 0 -8 11 6 12 0 7 -39 -9 -55 2 -59 39 -14 18 21 25 39 22
55 -3 14 1 23 9 23 7 0 16 5 20 12 5 7 0 9 -14 6 -24 -7 -39 19 -21 36 9 8 10
6 6 -7 -4 -11 -3 -16 3 -12 15 9 12 35 -5 35 -8 0 -22 -12 -32 -27z m8 -116
c-13 -13 -15 21 -3 50 6 15 8 13 10 -11 2 -16 -1 -33 -7 -39z"/>
<path d="M906 188 c-9 -12 -16 -29 -16 -37 0 -7 -8 -20 -17 -27 -11 -8 -13
-13 -5 -14 6 0 12 -9 12 -21 0 -15 5 -20 22 -17 12 2 23 9 26 16 2 7 -2 10
-11 6 -25 -9 -9 33 20 51 16 11 23 24 21 38 -4 30 -33 33 -52 5z m33 -19 c-13
-26 -23 -18 -14 10 3 12 11 19 16 16 5 -4 5 -14 -2 -26z"/>
<path d="M70 185 c-7 -9 -10 -19 -6 -23 4 -4 12 1 17 11 14 23 43 23 31 0 -5
-10 -12 -35 -16 -56 -6 -33 -10 -37 -29 -31 -17 5 -19 3 -11 -6 17 -17 47 -8
59 17 5 12 22 25 37 29 35 7 55 39 37 60 -16 19 -103 19 -119 -1z m98 -18 c2
-10 -4 -20 -13 -23 -21 -9 -28 0 -20 26 8 24 28 22 33 -3z"/>
<path d="M530 175 c-13 -14 -20 -25 -16 -25 5 0 2 -8 -5 -17 -12 -14 -12 -16
0 -8 11 6 13 3 7 -19 -8 -33 18 -47 42 -22 16 16 16 17 0 10 -13 -4 -18 -1
-18 12 0 25 10 37 40 52 25 12 25 12 2 8 -20 -4 -23 -1 -19 15 7 26 -5 24 -33
-6z"/>
<path d="M1025 190 c3 -5 10 -10 16 -10 5 0 9 5 9 10 0 6 -7 10 -16 10 -8 0
-12 -4 -9 -10z"/>
<path d="M246 149 c-17 -14 -26 -30 -26 -50 0 -42 37 -39 78 7 36 40 38 46 17
38 -8 -4 -15 -2 -15 4 0 20 -29 20 -54 1z m30 -45 c-7 -17 -36 -19 -36 -1 0 7
8 24 18 37 l17 25 3 -23 c2 -13 1 -30 -2 -38z"/>
<path d="M372 143 c-15 -16 -20 -21 -9 -13 18 14 18 13 12 -25 -7 -38 -6 -39
10 -23 16 15 33 88 20 88 -2 0 -17 -12 -33 -27z"/>
<path d="M425 153 c-18 -18 -20 -27 -2 -16 6 4 19 6 29 5 24 -4 31 15 8 21
-11 3 -27 -1 -35 -10z"/>
<path d="M759 141 c-30 -30 -37 -55 -18 -66 19 -13 54 4 82 39 16 21 21 33 12
30 -8 -4 -15 -2 -15 4 0 24 -33 20 -61 -7z m36 -13 c0 -23 -5 -34 -17 -36 -23
-4 -24 30 -2 52 20 21 20 21 19 -16z"/>
<path d="M1002 143 c-15 -16 -20 -21 -9 -13 18 14 18 13 12 -23 -6 -33 -5 -37
13 -37 11 0 25 7 32 15 11 13 10 14 -5 9 -15 -6 -16 -2 -10 34 4 23 4 42 1 42
-3 0 -18 -12 -34 -27z"/>
<path d="M1111 154 c-45 -32 -50 -84 -7 -84 14 0 35 15 55 40 17 22 25 37 16
34 -8 -3 -15 -2 -15 4 0 18 -27 21 -49 6z m24 -26 c0 -23 -5 -34 -17 -36 -23
-4 -24 25 -1 50 9 10 17 18 17 18 1 0 2 -15 1 -32z"/>
</g>
</svg>
