<?xml version="1.0" standalone="no"?>
<!DOCTYPE svg PUBLIC "-//W3C//DTD SVG 20010904//EN"
 "http://www.w3.org/TR/2001/REC-SVG-20010904/DTD/svg10.dtd">
<svg version="1.0" xmlns="http://www.w3.org/2000/svg"
 width="256.000000pt" height="256.000000pt" viewBox="0 0 256.000000 256.000000"
 preserveAspectRatio="xMidYMid meet">
<metadata>
Created by potrace 1.11, written by Peter Selinger 2001-2013
</metadata>
<g transform="translate(0.000000,256.000000) scale(0.100000,-0.100000)"
fill="#000000" stroke="none">
<path d="M367 2536 c-39 -32 -47 -58 -47 -143 l0 -79 -56 1 c-60 2 -82 -9 -88
-42 -7 -32 23 -51 84 -55 54 -3 55 -4 58 -35 l3 -33 -60 0 c-53 0 -63 -3 -76
-24 -29 -43 -3 -68 75 -72 25 -1 48 -2 53 -3 4 0 7 -14 7 -31 0 -16 -3 -30 -7
-31 -5 0 -30 -2 -58 -4 -66 -3 -63 -2 -75 -26 -9 -16 -8 -26 5 -45 13 -21 23
-24 75 -24 l60 0 0 -37 0 -38 -61 -1 c-64 -2 -77 -8 -83 -41 -7 -34 25 -54 88
-55 l56 -2 0 -33 0 -33 -60 0 c-52 0 -62 -3 -75 -24 -29 -43 7 -80 73 -76 59
4 63 2 60 -32 -3 -32 -4 -32 -53 -33 -82 -2 -109 -26 -80 -71 13 -21 23 -24
75 -24 l60 0 0 -35 0 -35 -59 0 c-49 0 -62 -4 -74 -21 -28 -40 5 -82 61 -79
68 5 73 2 70 -32 -3 -32 -5 -33 -48 -34 -47 0 -89 -11 -91 -22 0 -4 -2 -15 -4
-24 -5 -29 28 -48 88 -50 l57 -2 0 -33 0 -33 -60 0 c-52 0 -62 -3 -75 -24 -13
-19 -14 -29 -5 -45 12 -24 10 -23 70 -26 25 -2 51 -3 58 -4 18 -2 16 -71 -3
-72 -64 -4 -96 -6 -105 -7 -6 -1 -15 -14 -21 -29 -15 -41 16 -63 88 -63 l54 0
-3 -32 c-3 -35 2 -33 -90 -37 -34 -1 -58 -25 -53 -53 7 -34 22 -40 100 -42 38
-1 40 -3 43 -33 l3 -33 -55 0 c-43 0 -61 -5 -76 -20 -25 -25 -25 -35 0 -60 15
-15 33 -20 74 -20 l54 0 4 -89 c2 -67 7 -94 21 -108 9 -11 14 -23 10 -28 -5
-4 -3 -5 4 -2 6 4 18 1 26 -7 8 -8 17 -12 21 -9 3 4 6 1 6 -5 0 -7 5 -12 11
-12 5 0 8 4 5 8 -2 4 4 8 15 8 10 0 19 -3 19 -6 0 -4 7 -7 15 -7 8 0 15 3 15
7 0 11 94 6 103 -5 6 -7 10 -6 13 2 3 7 12 9 20 6 7 -3 11 -10 8 -15 -4 -6 4
-3 17 6 16 10 29 12 39 6 8 -5 21 -5 31 1 12 6 20 5 25 -2 4 -8 9 -7 15 2 7
11 9 11 9 1 0 -7 4 -11 9 -8 5 3 8 -2 7 -12 0 -10 5 -16 13 -14 8 2 11 -3 8
-12 -4 -11 -1 -13 10 -9 11 5 14 3 8 -6 -6 -10 -3 -11 15 -1 20 11 22 10 16
-5 -6 -16 -4 -16 10 -4 10 8 19 12 22 9 11 -10 9 46 -2 59 -9 12 -8 13 4 6 20
-12 43 -12 53 0 5 6 6 1 3 -10 -5 -16 -1 -21 14 -21 18 0 24 8 22 27 -1 3 6 6
14 6 7 0 14 -4 14 -9 0 -4 -4 -8 -10 -8 -5 0 -10 -5 -10 -10 0 -15 22 -7 40
14 14 16 17 17 17 3 0 -9 -4 -14 -9 -11 -4 3 -8 0 -8 -6 0 -6 8 -10 18 -8 9 2
16 9 15 16 -2 7 4 9 14 5 11 -5 14 -3 8 6 -6 10 -3 11 14 2 11 -7 21 -9 21 -5
0 4 8 0 18 -9 10 -10 22 -14 25 -11 4 4 -1 13 -11 21 -13 11 -10 10 14 -1 17
-8 35 -12 38 -8 4 4 12 -1 17 -11 6 -9 14 -17 19 -17 14 0 8 23 -10 38 -13 11
-11 11 8 2 12 -6 20 -15 17 -20 -9 -15 9 -19 23 -4 7 8 8 14 2 14 -5 0 -10 5
-10 11 0 8 4 8 15 -1 8 -6 19 -9 25 -5 6 4 17 1 25 -5 8 -7 15 -8 15 -3 0 15
103 10 108 -5 2 -7 8 -9 13 -6 6 3 5 12 -3 22 -11 13 -11 14 2 7 20 -12 60
-15 60 -4 0 5 5 9 11 9 8 0 7 -5 -1 -15 -7 -9 -20 -13 -30 -10 -9 3 -24 -3
-34 -14 -10 -11 -24 -17 -32 -14 -8 3 -14 0 -14 -5 0 -13 37 -7 56 8 7 7 17 9
22 6 5 -3 22 4 36 15 15 12 25 15 24 9 -2 -7 2 -14 9 -17 7 -3 11 3 8 15 -2
11 2 19 11 19 8 0 14 -4 14 -9 0 -4 -6 -8 -12 -8 -9 0 -8 -3 2 -10 10 -6 17
-5 23 6 5 8 12 12 18 9 5 -4 9 -1 9 4 0 6 5 11 10 11 6 0 9 -3 9 -7 -3 -20 2
-24 16 -13 8 7 15 9 15 4 0 -5 4 -2 10 6 5 8 12 11 17 7 4 -5 1 -12 -6 -16 -8
-5 -10 -14 -6 -21 5 -8 4 -11 -2 -7 -11 7 -28 -22 -18 -31 3 -3 5 0 5 6 0 7 5
12 11 12 5 0 7 -5 4 -10 -3 -6 -1 -10 4 -10 10 0 15 14 12 34 -1 5 6 17 15 27
12 14 21 16 30 8 7 -5 15 -6 17 -2 7 11 77 10 94 0 6 -4 14 -1 16 5 4 8 6 7 6
-4 1 -9 -3 -20 -9 -23 -5 -3 -10 -2 -10 2 0 12 -38 14 -45 2 -4 -5 -1 -9 6 -9
8 0 8 -5 -2 -17 -12 -16 -11 -15 8 0 13 12 27 16 35 11 24 -15 44 -11 45 10 1
12 -1 15 -4 9 -3 -7 -9 -13 -14 -13 -5 0 -4 8 2 19 13 19 39 23 52 6 6 -6 10
-6 14 3 2 6 9 12 14 12 6 0 7 -4 4 -10 -9 -14 8 -12 24 3 11 9 13 9 7 0 -4 -7
-2 -13 3 -13 6 0 11 5 11 10 0 6 4 10 9 10 4 0 7 -12 5 -27 -2 -17 -1 -20 2
-8 9 31 28 45 21 15 l-6 -25 16 22 c16 23 61 34 47 11 -5 -7 -3 -8 5 -4 7 5
10 10 7 13 -3 3 6 19 19 35 27 32 27 32 31 128 1 36 2 70 3 76 1 6 15 11 31
12 50 1 55 15 55 143 0 129 -8 149 -56 149 -19 0 -29 5 -29 15 0 10 10 15 28
15 52 1 57 14 57 145 1 132 -4 145 -54 145 -21 0 -31 5 -31 15 0 10 10 15 28
15 52 1 57 14 57 145 1 133 -4 145 -57 145 l-33 0 1 567 c1 554 1 569 -19 605
-13 24 -31 41 -51 47 -19 6 -373 9 -887 9 l-857 0 -25 -22z m473 -2396 c20 11
43 -9 45 -40 1 -15 -2 -17 -15 -10 -10 5 -20 6 -24 3 -3 -3 -14 1 -24 10 -10
10 -23 14 -27 10 -5 -5 -4 -1 3 8 6 9 10 18 8 21 -1 3 2 2 7 -3 6 -4 18 -4 27
1z"/>
<path d="M850 126 c0 -9 -5 -16 -11 -16 -5 0 -8 4 -5 8 3 5 -1 9 -9 9 -11 0
-12 -4 -4 -13 11 -13 42 -14 54 -2 3 3 -1 11 -10 18 -12 10 -15 10 -15 -4z"/>
<path d="M2230 176 c0 -2 8 -10 18 -17 15 -13 16 -12 3 4 -13 16 -21 21 -21
13z"/>
<path d="M2196 154 c-8 -20 -8 -24 2 -24 4 0 8 9 9 20 2 24 -3 26 -11 4z"/>
<path d="M296 142 c-3 -5 1 -9 9 -9 8 0 12 4 9 9 -3 4 -7 8 -9 8 -2 0 -6 -4
-9 -8z"/>
<path d="M353 133 c0 -9 4 -10 14 -2 7 6 13 12 13 14 0 1 -6 2 -13 2 -8 0 -14
-6 -14 -14z"/>
<path d="M497 126 c-5 -12 -3 -15 5 -10 8 5 9 1 4 -12 -5 -14 -4 -16 4 -7 8 7
9 17 3 28 -9 16 -10 16 -16 1z"/>
<path d="M560 130 c10 -6 11 -10 3 -10 -7 0 -13 -5 -13 -12 0 -9 3 -9 12 0 17
17 33 15 18 -3 -9 -10 -9 -15 -1 -15 6 0 11 5 11 10 0 5 5 9 11 7 6 -1 13 4
15 11 1 7 0 8 -3 2 -3 -6 -13 -4 -26 5 -12 8 -26 15 -32 15 -5 0 -3 -5 5 -10z"/>
<path d="M637 110 c-27 -20 -33 -29 -22 -34 8 -3 14 0 12 7 -1 7 4 11 11 10 6
-2 12 1 12 5 0 4 9 8 20 9 11 1 20 -3 20 -8 0 -6 6 -9 13 -6 6 2 21 0 32 -5
19 -9 19 -9 1 6 -10 9 -24 13 -30 9 -7 -4 -6 -1 1 7 9 10 19 8 47 -10 l36 -22
-12 26 c-7 16 -14 22 -18 15 -5 -7 -9 -5 -14 6 -3 9 -10 13 -16 10 -19 -12
-62 -16 -55 -5 9 14 5 12 -38 -20z"/>
<path d="M1751 126 c-8 -10 -9 -16 -1 -21 5 -3 10 -3 10 1 0 4 7 -1 15 -12 8
-11 15 -14 15 -6 0 6 5 12 10 12 7 0 7 -8 -1 -22 l-11 -23 22 23 c12 13 19 26
16 29 -3 3 2 12 12 19 15 11 14 13 -11 10 -15 -1 -30 -6 -34 -9 -3 -4 -12 -2
-18 3 -9 7 -16 6 -24 -4z m45 -6 c8 7 13 6 17 -3 3 -9 -2 -13 -16 -11 -12 1
-24 3 -27 4 -3 1 -9 2 -13 1 -5 -1 -5 4 -2 10 5 7 10 8 18 0 7 -7 14 -7 23 -1z"/>
<path d="M2110 136 c0 -2 8 -10 18 -17 15 -13 16 -12 3 4 -13 16 -21 21 -21
13z"/>
<path d="M379 113 c-13 -16 -12 -17 4 -4 16 13 21 21 13 21 -2 0 -10 -8 -17
-17z"/>
<path d="M434 119 c-4 -7 -3 -9 4 -5 5 3 13 0 15 -6 4 -9 6 -10 6 -1 1 17 -16
25 -25 12z"/>
<path d="M906 115 c-3 -8 2 -18 11 -23 13 -8 12 -11 -7 -25 -22 -16 -23 -16
-2 -14 12 0 19 3 17 6 -3 2 0 10 6 17 9 11 16 11 40 -2 16 -8 29 -12 29 -8 0
4 8 0 18 -7 14 -11 15 -11 5 1 -18 20 -16 35 2 20 8 -7 15 -9 15 -5 0 4 8 1
17 -6 10 -8 14 -9 10 -2 -4 6 -3 14 3 18 5 3 10 2 10 -4 0 -5 9 -9 19 -8 11 0
17 5 15 9 -3 5 -10 5 -16 2 -7 -5 -8 -2 -3 6 5 8 4 11 -3 6 -6 -3 -14 -2 -17
4 -4 6 -3 10 2 9 4 -1 10 0 13 1 3 1 13 3 23 5 15 3 16 1 6 -11 -7 -9 -8 -14
-1 -14 6 0 12 -6 15 -12 2 -7 3 -5 1 5 -1 10 3 16 9 14 7 -2 11 -14 10 -26 -2
-13 1 -20 7 -16 6 3 10 13 10 21 0 8 4 14 9 14 6 0 8 -9 6 -20 -2 -12 0 -18 6
-15 5 4 7 10 4 15 -3 5 -1 11 5 15 5 3 11 1 11 -4 1 -6 2 -15 3 -20 0 -5 5
-13 10 -18 6 -5 6 -2 1 6 -6 11 -4 13 11 8 18 -7 18 -6 2 7 -31 24 -19 27 22
6 36 -18 39 -19 33 -3 -6 16 -3 15 17 -2 13 -11 20 -14 16 -8 -4 7 -3 13 2 13
5 0 14 10 20 23 11 21 11 20 7 -7 -3 -21 -1 -26 7 -18 6 6 17 8 24 5 8 -3 14
0 14 7 0 6 -4 9 -9 5 -5 -3 -13 0 -17 6 -5 8 -3 9 6 4 9 -6 11 -4 5 6 -6 11
-5 11 5 2 9 -8 19 -9 32 -2 10 5 23 7 28 4 6 -3 7 1 4 9 -7 18 -24 21 -24 5 0
-8 -5 -7 -15 1 -12 10 -19 10 -27 2 -16 -16 -31 -15 -22 1 6 9 5 9 -7 0 -11
-9 -19 -9 -26 -2 -8 8 -19 6 -38 -7 -35 -23 -56 -26 -73 -11 -19 15 -50 19
-57 6 -5 -7 -12 -6 -22 3 -8 6 -22 13 -31 14 -18 3 -52 -13 -51 -24 3 -19 -2
-26 -10 -13 -6 10 -28 15 -62 16 -31 1 -54 6 -57 13 -5 17 -19 15 -26 -3z
m423 -31 c-8 -10 -15 -11 -24 -4 -8 6 -15 6 -23 -2 -7 -7 -12 -8 -12 -4 0 4
10 16 23 26 26 22 56 8 36 -16z m-394 16 c3 -6 -1 -7 -9 -4 -18 7 -21 14 -7
14 6 0 13 -4 16 -10z m281 -2 c3 -4 -1 -5 -10 -4 -8 1 -18 5 -22 8 -3 4 1 5
10 4 8 -1 18 -5 22 -8z m-214 -16 c-3 -10 -7 -11 -12 -2 -4 6 -10 11 -14 10
-4 -1 -12 0 -19 3 -6 2 2 4 19 3 22 0 30 -5 26 -14z"/>
<path d="M1306 101 c-4 -5 -2 -12 3 -15 5 -4 12 -2 15 3 4 5 2 12 -3 15 -5 4
-12 2 -15 -3z"/>
<path d="M1627 117 c-4 -14 -49 -17 -64 -5 -13 10 -14 9 -17 -11 -2 -14 -16
-26 -16 -14 0 6 -6 10 -12 9 -19 -3 -55 -25 -41 -26 6 0 15 5 18 10 4 7 13 6
26 -1 17 -8 23 -7 35 8 13 16 13 16 8 1 -7 -22 14 -24 22 -3 4 8 10 15 15 15
6 0 5 -10 -1 -22 -9 -19 -9 -21 2 -8 20 23 49 25 42 3 -4 -13 -3 -15 4 -5 5 8
12 13 16 13 3 -1 6 2 7 7 0 4 7 11 15 15 8 4 14 13 14 19 0 7 -4 7 -13 -1 -8
-6 -17 -8 -21 -4 -11 12 -35 12 -39 0z m39 -23 c2 -12 -1 -13 -11 -4 -8 7 -20
9 -27 5 -7 -4 -4 1 6 9 21 17 29 14 32 -10z"/>
<path d="M1952 105 c1 -13 6 -21 10 -19 4 3 5 11 1 19 -3 11 -1 13 10 9 8 -3
17 -2 20 3 3 4 -6 9 -19 9 -19 2 -23 -3 -22 -21z"/>
<path d="M2003 110 c-19 -15 -20 -19 -7 -24 8 -3 12 -2 9 3 -3 6 3 14 12 20
10 5 16 12 13 14 -3 3 -15 -3 -27 -13z"/>
<path d="M2100 100 c-9 -6 -10 -10 -3 -10 6 0 15 5 18 10 8 12 4 12 -15 0z"/>
<path d="M526 78 c3 -5 10 -6 15 -3 13 9 11 12 -6 12 -8 0 -12 -4 -9 -9z"/>
<path d="M1410 81 c0 -6 4 -13 10 -16 6 -3 7 1 4 9 -7 18 -14 21 -14 7z"/>
<path d="M1754 82 c3 -5 0 -13 -6 -15 -9 -4 -10 -6 -1 -6 17 -1 25 16 12 25
-7 4 -9 3 -5 -4z"/>
<path d="M1859 73 c-12 -16 -12 -17 2 -6 9 7 19 10 22 6 4 -3 7 -1 7 5 0 17
-16 15 -31 -5z"/>
<path d="M740 65 c0 -7 30 -13 34 -7 3 4 -4 9 -15 9 -10 1 -19 0 -19 -2z"/>
<path d="M1440 66 c0 -2 7 -7 16 -10 8 -3 12 -2 9 4 -6 10 -25 14 -25 6z"/>
<path d="M1495 61 c-3 -5 0 -13 6 -17 7 -4 9 -3 5 4 -3 5 0 13 6 15 9 4 10 6
1 6 -6 1 -14 -3 -18 -8z"/>
<path d="M1615 60 c-3 -5 -1 -10 4 -10 6 0 11 5 11 10 0 6 -2 10 -4 10 -3 0
-8 -4 -11 -10z"/>
</g>
</svg>
